<svg height="512pt" viewBox="-31 0 512 512" width="512pt" xmlns="http://www.w3.org/2000/svg"><path d="m112.46875 95.332031v-95.332031h-1.070312c-3.976563 0-7.792969 1.582031-10.605469 4.394531l-96.398438 96.398438c-2.8125 2.8125-4.394531 6.628906-4.394531 10.605469v1.070312h95.332031c9.449219 0 17.136719-7.6875 17.136719-17.136719zm0 0"/><path d="m257.0625 430.601562c0-61.429687 49.980469-111.402343 111.402344-111.402343 5.089844 0 10.089844.339843 15 1.019531v-273.089844c0-25.910156-20.953125-47.128906-47.132813-47.128906h-193.867187v95.328125c0 25.992187-21.140625 47.140625-47.132813 47.140625h-95.32812475v322.402344c0 25.988281 21.14062475 47.128906 47.12890575 47.128906h245.359376c-21.789063-20.351562-35.429688-49.308594-35.429688-81.398438zm-161.730469-237.800781h192.800781c8.285157 0 15 6.714844 15 15 0 8.285157-6.714843 15-15 15h-192.800781c-8.28125 0-15-6.714843-15-15 0-8.285156 6.71875-15 15-15zm0 64.265625h192.800781c8.285157 0 15 6.714844 15 15s-6.714843 15-15 15h-192.800781c-8.28125 0-15-6.714844-15-15s6.71875-15 15-15zm96.402344 158.535156h-96.402344c-8.28125 0-15-6.71875-15-15 0-8.285156 6.71875-15 15-15h96.402344c8.28125 0 15 6.714844 15 15 0 8.28125-6.71875 15-15 15zm0-64.269531h-96.402344c-8.28125 0-15-6.714843-15-15 0-8.28125 6.71875-15 15-15h96.402344c8.28125 0 15 6.71875 15 15 0 8.285157-6.71875 15-15 15zm0 0"/><path d="m368.464844 349.199219c-44.953125 0-81.398438 36.445312-81.398438 81.402343 0 44.953126 36.445313 81.398438 81.398438 81.398438 44.957031 0 81.402344-36.445312 81.402344-81.398438 0-44.957031-36.445313-81.402343-81.402344-81.402343zm32.136718 96.402343h-17.132812v17.132813c0 8.28125-6.71875 15-15 15-8.285156 0-15-6.71875-15-15v-17.132813h-17.136719c-8.28125 0-15-6.71875-15-15 0-8.285156 6.71875-15 15-15h17.132813v-17.132812c0-8.285156 6.71875-15 15-15 8.285156 0 15 6.714844 15 15v17.132812h17.132812c8.285156 0 15 6.714844 15 15 0 8.28125-6.714844 15-14.996094 15zm0 0"/></svg>